# xmcd CD database file
#
# Track frame offsets:
#	150
#	13722
#	35602
#	49632
#	84160
#	97347
#	111300
#	134717
#	157265
#	169312
#	183245
#	213632
#	226522
#
# Disc length: 3270 seconds
#
# Revision: 3
# Processed by: cddbd v1.4PL0 Copyright (c) Steve Scherf et al.
# Submitted via: CDex 1.50Beta7
#
DISCID=b30cc40d
DTITLE=Joe Beard - Dealin'
DYEAR=2000
DGENRE=Blues
TTITLE0=The Bitter Seed
TTITLE1=You Don't Love Me Anymore
TTITLE2=Just Like a Fish
TTITLE3=Life without Parole
TTITLE4=My Eyes Keep Me in Trouble
TTITLE5=Holding a Losing Hand
TTITLE6=Give Up and Let Me Go
TTITLE7=Three Day Love Affair
TTITLE8=Making a Fool Out of Me
TTITLE9=Long Tall Shorty
TTITLE10=That So-called Friend of Mine
TTITLE11=You'd Better Be Sure
TTITLE12=If I Get Lucky
EXTD=YEAR: 2000
EXTT0=
EXTT1=
EXTT2=
EXTT3=
EXTT4=
EXTT5=
EXTT6=
EXTT7=
EXTT8=
EXTT9=
EXTT10=
EXTT11=
EXTT12=
PLAYORDER=
